<svg width="34" height="33" viewBox="0 0 34 33" fill="none" xmlns="http://www.w3.org/2000/svg">
<path d="M0.687572 26.64C0.686758 27.4048 0.83681 28.1623 1.12914 28.8691C1.42146 29.5759 1.85032 30.2182 2.39117 30.759C2.93201 31.2998 3.57421 31.7287 4.28102 32.021C4.98782 32.3134 5.74534 32.4634 6.5102 32.4626H27.7396C28.5041 32.4634 29.2612 32.3135 29.9676 32.0215C30.6741 31.7295 31.3161 31.3011 31.8568 30.7608C32.3976 30.2205 32.8266 29.5789 33.1192 28.8727C33.4118 28.1665 33.5624 27.4095 33.5623 26.6451V6.23499C33.5631 5.47012 33.413 4.7126 33.1207 4.0058C32.8284 3.299 32.3995 2.65679 31.8587 2.11595C31.3178 1.57511 30.6756 1.14625 29.9688 0.853921C29.262 0.561595 28.5045 0.411543 27.7396 0.412357L0.687572 26.64ZM0.687572 26.64V6.23499V26.64ZM6.50933 1.23422H6.5102L27.7396 1.23422L27.7405 1.23422C28.3973 1.23353 29.0478 1.36237 29.6547 1.61339L29.9669 0.85856L29.6547 1.61339C30.2616 1.86442 30.8131 2.23268 31.2775 2.6971C31.7419 3.16152 32.1102 3.71298 32.3612 4.31991C32.6122 4.92684 32.7411 5.57732 32.7404 6.23411V6.23499V26.6451V26.6453C32.7405 27.3017 32.6112 27.9517 32.3599 28.5581C32.1087 29.1645 31.7403 29.7155 31.2759 30.1794C30.8116 30.6434 30.2603 31.0112 29.6537 31.262C29.047 31.5127 28.3969 31.6414 27.7405 31.6407H27.7396H6.5102H6.50933C5.85254 31.6414 5.20206 31.5126 4.59513 31.2616C3.9882 31.0105 3.43674 30.6423 2.97232 30.1778C2.50789 29.7134 2.13963 29.162 1.88861 28.555C1.63759 27.9481 1.50874 27.2976 1.50944 26.6408V26.64L1.50944 6.23499L1.50944 6.23411C1.50874 5.57732 1.63759 4.92684 1.88861 4.31991C2.13963 3.71298 2.50789 3.16152 2.97231 2.6971C3.43674 2.23268 3.9882 1.86442 4.59513 1.61339C5.20206 1.36237 5.85254 1.23353 6.50933 1.23422Z" stroke="#A75A50" stroke-width="1.64373"/>
<path d="M8.08454 22.8898V8.79492C8.08454 8.69856 8.12576 8.64394 8.22161 8.64394C8.45451 8.64394 8.6735 8.64394 8.98834 8.63055C9.3176 8.61663 9.6582 8.61663 10.0297 8.60272C10.4012 8.58881 10.7964 8.58932 11.2215 8.57541C11.6467 8.5615 12.0568 8.56201 12.468 8.56201C13.5908 8.56201 14.5224 8.69856 15.2897 8.9866C15.9773 9.22008 16.6043 9.6038 17.1251 10.1099C17.5665 10.5526 17.9076 11.0851 18.1252 11.6712C18.3323 12.2421 18.4388 12.8447 18.4401 13.452C18.4401 14.6299 18.1661 15.6024 17.6182 16.3695C17.0679 17.1357 16.2993 17.718 15.4128 18.0405C14.4812 18.3832 13.4548 18.5043 12.3309 18.5043C12.0022 18.5043 11.7827 18.5043 11.6461 18.4904C11.5096 18.4765 11.3174 18.477 11.0572 18.477V22.8738C11.0601 22.8964 11.0585 22.9193 11.0525 22.9412C11.0465 22.9631 11.0361 22.9836 11.022 23.0015C11.008 23.0193 10.9905 23.0342 10.9706 23.0452C10.9507 23.0562 10.9288 23.0631 10.9062 23.0655H8.24891C8.13916 23.0676 8.08454 23.013 8.08454 22.8898ZM11.0706 11.2878V15.8903C11.2623 15.9037 11.4405 15.9176 11.6049 15.9176H12.333C12.8677 15.9181 13.3993 15.8348 13.9082 15.6708C14.3444 15.5419 14.7338 15.2893 15.0294 14.9437C15.317 14.6016 15.454 14.1358 15.454 13.5329C15.4664 13.1055 15.3571 12.6834 15.1387 12.3158C14.9102 11.9604 14.5745 11.687 14.1803 11.5352C13.666 11.3338 13.1158 11.2405 12.5638 11.261C12.2078 11.261 11.894 11.261 11.6322 11.2749C11.445 11.2625 11.257 11.2672 11.0706 11.2889V11.2878Z" fill="#A75A50"/>
<path d="M26.9871 15.0533C26.5734 14.8363 26.1305 14.6801 25.6721 14.5896C25.1686 14.4758 24.6543 14.4162 24.1381 14.4118C23.8601 14.4018 23.5821 14.4341 23.3137 14.5076C23.1431 14.543 22.9918 14.6405 22.8891 14.7812C22.8199 14.8924 22.7819 15.0202 22.7794 15.1512C22.7856 15.2815 22.8336 15.4064 22.9164 15.5073C23.0455 15.6595 23.203 15.7852 23.3802 15.8772C23.695 16.0416 24.0237 16.1921 24.3525 16.3291C25.0926 16.5784 25.8006 16.9141 26.462 17.3293C26.9119 17.612 27.2839 18.0028 27.5441 18.466C27.7642 18.903 27.8724 19.3877 27.859 19.8768C27.8703 20.5243 27.6841 21.1599 27.3251 21.6988C26.9427 22.2454 26.4096 22.669 25.7906 22.918C25.1208 23.2055 24.2963 23.3565 23.3116 23.3565C22.6877 23.3579 22.0651 23.2975 21.453 23.1761C20.97 23.0926 20.5002 22.9451 20.0561 22.7376C20.0084 22.7143 19.9686 22.6774 19.9418 22.6316C19.9149 22.5858 19.9022 22.533 19.9051 22.48V20.0953C19.9039 20.0719 19.9083 20.0485 19.9179 20.0271C19.9275 20.0057 19.942 19.9868 19.9603 19.9721C19.9795 19.9607 20.0019 19.9559 20.0241 19.9583C20.0463 19.9607 20.0671 19.9703 20.0834 19.9855C20.6117 20.2963 21.1855 20.5224 21.7838 20.6554C22.3116 20.793 22.8549 20.8622 23.4003 20.8615C23.9207 20.8615 24.2907 20.7935 24.5375 20.6698C24.647 20.6189 24.7398 20.5378 24.8049 20.436C24.8701 20.3343 24.9049 20.2161 24.9054 20.0953C24.9054 19.9036 24.7961 19.7253 24.5766 19.547C24.3571 19.3687 23.9068 19.1637 23.2343 18.9035C22.5457 18.661 21.8917 18.3295 21.2892 17.9172C20.86 17.6112 20.5044 17.2134 20.2483 16.7527C20.0294 16.3199 19.921 15.8396 19.933 15.3547C19.9346 14.7704 20.0949 14.1975 20.3967 13.6971C20.7449 13.1473 21.2444 12.7098 21.8354 12.4372C22.4789 12.1085 23.2869 11.9575 24.2572 11.9575C24.8262 11.9576 25.3945 11.9989 25.9576 12.0812C26.362 12.1358 26.7578 12.2416 27.1355 12.396C27.166 12.4064 27.1942 12.4227 27.2182 12.4441C27.2423 12.4656 27.2618 12.4916 27.2757 12.5207C27.2915 12.5742 27.3006 12.6294 27.303 12.6851V14.9178C27.3032 14.9444 27.2972 14.9708 27.2852 14.9946C27.2733 15.0184 27.2559 15.0391 27.2344 15.0548C27.1103 15.0806 27.0417 15.0806 26.9871 15.0533Z" fill="#A75A50"/>
</svg>
