<svg width="34" height="33" viewBox="0 0 34 33" fill="none" xmlns="http://www.w3.org/2000/svg">
<g clip-path="url(#clip0_281_306)">
<path d="M6.19664 1.233H27.4282C30.1933 1.233 32.4279 3.46762 32.4279 6.23269V26.6424C32.4279 29.4075 30.1933 31.6421 27.4282 31.6421H6.19664C3.43157 31.6421 1.19695 29.4075 1.19695 26.6424V6.23269C1.19695 3.46762 3.43157 1.233 6.19664 1.233Z" stroke="#A75A50" stroke-width="1.64373"/>
<path d="M8.18282 22.8755V8.7668C8.18282 8.67091 8.22391 8.61612 8.3198 8.61612C8.55266 8.61612 8.77183 8.61612 9.08687 8.60242C9.41562 8.58873 9.75807 8.58873 10.1279 8.57503C10.4977 8.56133 10.895 8.56133 11.3196 8.54763C11.7442 8.53394 12.1552 8.53394 12.5661 8.53394C13.6893 8.53394 14.6208 8.67091 15.3879 8.95857C16.0727 9.19143 16.7028 9.57497 17.2234 10.0818C17.6617 10.5201 18.0041 11.0543 18.2233 11.6433C18.4288 12.2186 18.5383 12.8076 18.5383 13.424C18.5383 14.6021 18.2644 15.5746 17.7165 16.3417C17.1686 17.1087 16.4015 17.6841 15.5111 18.0128C14.5797 18.3552 13.5524 18.4785 12.4291 18.4785C12.1004 18.4785 11.8812 18.4785 11.7442 18.4648C11.6073 18.4511 11.4155 18.4511 11.1552 18.4511V22.8481C11.1689 22.944 11.1004 23.0262 11.0046 23.0399H10.9498H8.34719C8.23761 23.0399 8.18282 22.9851 8.18282 22.8618V22.8755ZM11.1689 11.2735V15.8759C11.3607 15.8896 11.5388 15.9033 11.7032 15.9033H12.4291C12.9633 15.9033 13.4976 15.8212 14.0044 15.6568C14.4427 15.5335 14.8262 15.2732 15.1276 14.9308C15.4152 14.5884 15.5522 14.1226 15.5522 13.5199C15.5659 13.0953 15.4563 12.6707 15.2372 12.3008C15.0043 11.9447 14.6756 11.6707 14.2783 11.5201C13.7715 11.3146 13.2236 11.2324 12.662 11.2461C12.3059 11.2461 11.9908 11.2461 11.7305 11.2598C11.4566 11.2461 11.2648 11.2598 11.1689 11.2735Z" fill="#A75A50"/>
<path d="M20.5109 12.0818H22.908C23.045 12.0818 23.1545 12.1777 23.1956 12.3009C23.2367 12.4105 23.2641 12.5201 23.2778 12.6434C23.3052 12.7804 23.3326 12.931 23.3463 13.068C23.36 13.2187 23.3737 13.3831 23.3737 13.5611C23.7846 13.0817 24.2778 12.6845 24.8394 12.3831C25.4695 12.027 26.1954 11.8489 26.9214 11.8489C27.0173 11.8352 27.0995 11.9037 27.1132 11.9996V12.0544V14.7254C27.1132 14.835 27.0447 14.8761 26.894 14.8761C26.4009 14.8624 25.8941 14.9035 25.4147 15.0131C25.0174 15.0953 24.6339 15.2186 24.2641 15.3829C24.0038 15.5062 23.7572 15.6706 23.5655 15.8898V22.8756C23.5655 23.0126 23.5107 23.0674 23.3874 23.0674H20.6889C20.5794 23.0811 20.4835 23.0126 20.4698 22.903V22.8482V15.2597C20.4698 14.9309 20.4698 14.5885 20.4561 14.2323C20.4424 13.8762 20.4424 13.52 20.4287 13.1639C20.4287 12.8489 20.4013 12.5475 20.3739 12.2325C20.3602 12.164 20.4013 12.0955 20.4698 12.0818C20.4698 12.0681 20.4972 12.0681 20.5109 12.0818Z" fill="#A75A50"/>
</g>
<defs>
<clipPath id="clip0_281_306">
<rect width="32.8747" height="32.0528" fill="white" transform="translate(0.375084 0.411133)"/>
</clipPath>
</defs>
</svg>
