<svg width="33" height="33" viewBox="0 0 33 33" fill="none" xmlns="http://www.w3.org/2000/svg">
<g clip-path="url(#clip0_281_339)">
<path d="M15.6277 22.8555V27.3954C15.6277 28.5994 15.1494 29.7541 14.2981 30.6055C13.4467 31.4569 12.2919 31.9352 11.0879 31.9352C9.88387 31.9352 8.72914 31.4569 7.87776 30.6055C7.02637 29.7541 6.54807 28.5994 6.54807 27.3954C6.54807 26.1913 7.02637 25.0366 7.87776 24.1852C8.72914 23.3338 9.88387 22.8555 11.0879 22.8555H15.6277Z" stroke="#3B3B3D" stroke-width="1.87855"/>
<path d="M6.54807 16.4374C6.54807 15.2333 7.02637 14.0786 7.87776 13.2272C8.72914 12.3758 9.88387 11.8975 11.0879 11.8975H15.6277V20.9772H11.0879C9.88387 20.9772 8.72914 20.4989 7.87776 19.6475C7.02637 18.7961 6.54807 17.6414 6.54807 16.4374Z" stroke="#3B3B3D" stroke-width="1.87855"/>
<path d="M6.54807 5.47911C6.54807 4.27569 7.02589 3.1215 7.87651 2.27022C8.72704 1.41902 9.88071 0.940313 11.084 0.939277H15.6235V10.0189H11.0879C9.88387 10.0189 8.72914 9.54064 7.87776 8.68926C7.02638 7.83788 6.54807 6.68315 6.54807 5.47911Z" stroke="#3B3B3D" stroke-width="1.87855"/>
<path d="M17.5063 0.939277H22.0462C23.2502 0.939277 24.4049 1.41758 25.2563 2.26896C26.1077 3.12035 26.586 4.27507 26.586 5.47911C26.586 6.68315 26.1077 7.83788 25.2563 8.68926C24.4049 9.54064 23.2502 10.0189 22.0462 10.0189H17.5063V0.939277Z" stroke="#3B3B3D" stroke-width="1.87855"/>
<path d="M26.586 16.4374C26.586 17.6414 26.1077 18.7961 25.2563 19.6475C24.4049 20.4989 23.2502 20.9772 22.0462 20.9772C20.8421 20.9772 19.6874 20.4989 18.836 19.6475C17.9846 18.7961 17.5063 17.6414 17.5063 16.4374C17.5063 15.2333 17.9846 14.0786 18.836 13.2272C19.6874 12.3758 20.8421 11.8975 22.0462 11.8975C23.2502 11.8975 24.4049 12.3758 25.2563 13.2272C26.1077 14.0786 26.586 15.2333 26.586 16.4374Z" stroke="#3B3B3D" stroke-width="1.87855"/>
<path d="M14.8351 9.5142L22.1984 10.8017L16.3279 16.6722L14.8351 9.5142Z" fill="#3B3B3D"/>
</g>
<defs>
<clipPath id="clip0_281_339">
<rect width="32.8747" height="32.8747" fill="white" transform="translate(0.125305)"/>
</clipPath>
</defs>
</svg>
