<svg width="34" height="33" viewBox="0 0 34 33" fill="none" xmlns="http://www.w3.org/2000/svg">
<g clip-path="url(#clip0_281_331)">
<path d="M31.3771 0L28.7363 29.5838L16.8657 32.8747L5.02786 29.5884L2.38985 0H31.3771Z" fill="#A75A50"/>
<path d="M16.8835 30.3594L26.4755 27.7001L28.7322 2.41943H16.8835V30.3594Z" fill="#A75A50"/>
<path d="M16.8835 13.3931H8.43747L8.76272 17.0219H16.8835V13.3931Z" fill="white"/>
<path d="M16.8835 6.04834H16.871H7.78398L8.11386 9.67728H16.8835V6.04834Z" fill="white"/>
<path d="M8.92487 18.8367L9.43327 24.5346L16.8668 26.5982L16.8835 26.5935V22.8179L16.8676 22.8222L12.8261 21.7309L12.5677 18.8367H10.6038H8.92487Z" fill="white"/>
<path d="M21.3395 17.0222L20.9182 21.7286L16.8709 22.821V26.5964L24.3103 24.5346L24.3649 23.9215L25.2176 14.3678L25.3062 13.3933L25.9613 6.04834H16.8709V9.67728H21.9844L21.6542 13.3933H16.8709V17.0222H21.3395Z" fill="white"/>
</g>
<defs>
<clipPath id="clip0_281_331">
<rect width="32.8747" height="32.8747" fill="white" transform="translate(0.437805)"/>
</clipPath>
</defs>
</svg>
