<svg width="34" height="33" viewBox="0 0 34 33" fill="none" xmlns="http://www.w3.org/2000/svg">
<g clip-path="url(#clip0_281_326)">
<path d="M5.33208 29.589L2.69389 0.000732422H31.6811L29.0409 29.5849L17.169 32.8744L5.33208 29.589Z" fill="#A75A50"/>
<path d="M26.7797 27.701L29.0368 2.42041H17.1875V30.3608L26.7797 27.701Z" fill="#A75A50"/>
<path d="M17.1752 6.04907H8.08737L9.06642 17.0231H17.1875V13.3945H12.3857L12.0539 9.67864H17.1875V6.04907H17.1752ZM17.1875 22.8069L17.1721 22.811L13.1306 21.72L12.8737 18.826H9.22874L9.73727 24.5236L17.1711 26.5783L17.1875 26.5731V22.8069Z" fill="white"/>
<path d="M17.1752 17.0231H21.6441L21.2331 21.7282L17.1854 22.8203V26.5958L24.6254 24.5339L25.6219 13.3925H17.1875L17.1752 17.0231ZM26.1787 7.02298L26.265 6.04907H17.1731V9.67762H25.9383L26.0102 8.86191L26.1787 7.02298Z" fill="white"/>
</g>
<defs>
<clipPath id="clip0_281_326">
<rect width="32.8747" height="32.8747" fill="white" transform="translate(0.750229)"/>
</clipPath>
</defs>
</svg>
