<svg width="33" height="33" viewBox="0 0 33 33" fill="none" xmlns="http://www.w3.org/2000/svg">
<g clip-path="url(#clip0_281_316)">
<path d="M5.88421 1.25448H27.1158C29.8819 1.25448 32.1155 3.48663 32.1155 6.24632V26.6285C32.1155 29.3882 29.8819 31.6203 27.1158 31.6203H5.88421C3.11809 31.6203 0.88452 29.3882 0.88452 26.6285V6.24632C0.88452 3.48663 3.11809 1.25448 5.88421 1.25448Z" stroke="#A75A50" stroke-width="1.64373"/>
<path d="M13.2673 19.5833H8.17175L7.13072 22.8116C7.10333 22.9348 6.99374 23.0168 6.87046 23.0031H4.29528C4.1446 23.0031 4.10351 22.9211 4.1446 22.7569L8.55529 10.1309C8.59638 9.99413 8.63748 9.87102 8.69227 9.70686C8.74706 9.4196 8.77446 9.11865 8.77446 8.81771C8.76076 8.74931 8.81555 8.68092 8.88404 8.66724H8.92513H12.4318C12.5276 8.66724 12.5961 8.70827 12.6098 8.77667L17.6095 22.7296C17.6506 22.88 17.6095 22.9484 17.4725 22.9484H14.6097C14.5138 22.9621 14.4179 22.8937 14.3905 22.798L13.2673 19.5149V19.5833ZM8.96622 16.8611H12.4455C12.3633 16.5739 12.2537 16.2319 12.1304 15.8762C12.0071 15.5069 11.8839 15.1102 11.7606 14.6998C11.6236 14.2758 11.5003 13.8654 11.3633 13.4413C11.2264 13.0173 11.1031 12.6206 10.9935 12.2239C10.8839 11.8408 10.788 11.4852 10.6921 11.1569H10.6648C10.5415 11.7451 10.3908 12.3333 10.199 12.9215C9.99356 13.5781 9.78809 14.2621 9.56893 14.946C9.39086 15.6437 9.17169 16.2866 8.96622 16.8611Z" fill="#A75A50"/>
<path d="M25.6775 18.3521H21.3353C21.3901 18.7761 21.5271 19.2002 21.7599 19.5695C22.0065 19.9389 22.349 20.2261 22.7599 20.3903C23.3078 20.6228 23.9105 20.7459 24.5132 20.7323C24.9926 20.7186 25.472 20.6775 25.9378 20.5818C26.3624 20.5271 26.7733 20.4176 27.1569 20.2672C27.2254 20.2124 27.2665 20.2398 27.2665 20.3766V22.4695C27.2665 22.5242 27.2528 22.579 27.2391 22.6337C27.2117 22.6747 27.1843 22.7021 27.1432 22.7294C26.7048 22.9209 26.2528 23.0577 25.7734 23.1398C25.1296 23.2629 24.4858 23.3176 23.8283 23.304C22.7873 23.304 21.9106 23.1398 21.1983 22.8252C20.5272 22.5379 19.9381 22.0865 19.4724 21.5257C19.0341 20.9922 18.719 20.3903 18.5273 19.7337C18.3355 19.0907 18.2396 18.4205 18.2396 17.7365C18.2396 16.9978 18.3492 16.2728 18.5821 15.5615C18.8012 14.8775 19.1437 14.2483 19.6094 13.6874C20.0614 13.1402 20.623 12.7025 21.2668 12.3879C21.9106 12.0733 22.6777 11.9638 23.5544 11.9638C24.2803 11.9501 25.0063 12.0869 25.6775 12.3879C26.2391 12.6341 26.7322 13.0034 27.1158 13.4822C27.4719 13.9473 27.7596 14.4671 27.9376 15.0417C28.1157 15.5888 28.1979 16.1497 28.1979 16.7105C28.1979 17.0388 28.1842 17.3261 28.1705 17.586C28.1431 17.8459 28.1294 18.0374 28.1157 18.1605C28.102 18.2563 28.0198 18.3384 27.924 18.3384C27.8418 18.3384 27.6911 18.3521 27.4719 18.3657C27.2528 18.3931 26.9925 18.4068 26.6775 18.4068C26.3624 18.4068 26.0337 18.3521 25.6775 18.3521ZM21.3353 16.3549H24.2256C24.5817 16.3549 24.842 16.3549 25.0063 16.3412C25.1159 16.3275 25.2255 16.3002 25.3214 16.2318V16.095C25.3214 15.9171 25.294 15.753 25.2392 15.5888C24.9926 14.8228 24.2666 14.303 23.4585 14.3303C22.7051 14.2893 21.9928 14.686 21.6367 15.37C21.4723 15.6846 21.3764 16.0129 21.3353 16.3549Z" fill="#A75A50"/>
</g>
<defs>
<clipPath id="clip0_281_316">
<rect width="32.8747" height="32.0096" fill="white" transform="translate(0.0626526 0.432617)"/>
</clipPath>
</defs>
</svg>
