<svg width="33" height="33" viewBox="0 0 33 33" fill="none" xmlns="http://www.w3.org/2000/svg">
<path d="M3.29047e-06 26.64C-0.000810255 27.4048 0.149241 28.1623 0.441568 28.8691C0.733894 29.5759 1.16275 30.2182 1.7036 30.759C2.24444 31.2998 2.88665 31.7287 3.59345 32.021C4.30025 32.3134 5.05777 32.4634 5.82263 32.4626H27.0521C27.8165 32.4634 28.5736 32.3135 29.28 32.0215C29.9865 31.7295 30.6285 31.3011 31.1693 30.7608C31.71 30.2205 32.139 29.5789 32.4316 28.8727C32.7243 28.1665 32.8748 27.4095 32.8747 26.6451V6.23499C32.8755 5.47012 32.7254 4.7126 32.4331 4.0058C32.1408 3.299 31.7119 2.65679 31.1711 2.11595C30.6302 1.57511 29.988 1.14625 29.2812 0.853921C28.5744 0.561595 27.8169 0.411543 27.0521 0.412357L3.29047e-06 26.64ZM3.29047e-06 26.64V6.23499V26.64ZM5.82176 1.23422H5.82263L27.0521 1.23422L27.0529 1.23422C27.7097 1.23353 28.3602 1.36237 28.9671 1.61339L29.2793 0.85856L28.9671 1.61339C29.5741 1.86442 30.1255 2.23268 30.5899 2.6971C31.0544 3.16152 31.4226 3.71298 31.6736 4.31991C31.9247 4.92684 32.0535 5.57732 32.0528 6.23411V6.23499V26.6451V26.6453C32.0529 27.3017 31.9237 27.9517 31.6724 28.5581C31.4211 29.1645 31.0527 29.7155 30.5884 30.1794C30.124 30.6434 29.5727 31.0112 28.9661 31.262C28.3595 31.5127 27.7093 31.6414 27.0529 31.6407H27.0521H5.82263H5.82176C5.16497 31.6414 4.51449 31.5126 3.90756 31.2616C3.30063 31.0105 2.74917 30.6423 2.28475 30.1778C1.82032 29.7134 1.45206 29.162 1.20104 28.555C0.950021 27.9481 0.821172 27.2976 0.821871 26.6408V26.64L0.821871 6.23499L0.82187 6.23411C0.821172 5.57732 0.950021 4.92684 1.20104 4.31991C1.45206 3.71298 1.82032 3.16152 2.28475 2.6971C2.74917 2.23268 3.30063 1.86442 3.90756 1.61339C4.51449 1.36237 5.16497 1.23353 5.82176 1.23422Z" stroke="#A75A50" stroke-width="1.64373"/>
<path d="M15.9304 19.6431H10.8348L9.79399 22.8626C9.78224 22.9214 9.74892 22.9736 9.70057 23.0091C9.65223 23.0446 9.59236 23.0607 9.53274 23.0542H6.95636C6.8059 23.0542 6.76467 22.9718 6.8059 22.8074L11.2167 10.1095C11.2579 9.97291 11.2986 9.82193 11.3537 9.65756C11.4099 9.36407 11.4385 9.06598 11.4393 8.76716C11.4349 8.73281 11.4438 8.69807 11.4642 8.67009C11.4846 8.64211 11.515 8.623 11.549 8.6167H15.0977C15.2075 8.6167 15.2621 8.65792 15.2755 8.72645L20.2737 22.8347C20.3149 22.9857 20.2737 23.0542 20.1366 23.0542H17.2732C17.2247 23.0591 17.176 23.0466 17.1358 23.019C17.0956 22.9913 17.0665 22.9503 17.0537 22.9033L15.9304 19.6431ZM11.6294 16.8606H15.1086C15.0266 16.5731 14.9169 16.2304 14.7937 15.8744C14.6706 15.5044 14.5469 15.1071 14.4238 14.6965C14.2867 14.2719 14.1635 13.8607 14.0265 13.4361C13.8894 13.0115 13.7688 12.6142 13.657 12.2169C13.5473 11.8336 13.4509 11.4775 13.3556 11.1488H13.3283C13.2056 11.7456 13.0508 12.3355 12.8645 12.9157C12.6584 13.5731 12.4523 14.258 12.2343 14.9428C12.0427 15.6415 11.8371 16.2856 11.6315 16.8606H11.6294Z" fill="#A75A50"/>
<path d="M23.2593 10.9583C23.0345 10.9632 22.8109 10.9234 22.6015 10.841C22.3922 10.7586 22.2014 10.6354 22.0402 10.4786C21.7268 10.1354 21.5603 9.68315 21.5765 9.21871C21.5682 8.99224 21.6079 8.76658 21.6929 8.5565C21.7779 8.34641 21.9062 8.15663 22.0696 7.99956C22.3986 7.688 22.8356 7.51606 23.2887 7.51984C23.8225 7.51984 24.2337 7.68421 24.5352 7.99956C24.8314 8.34608 24.992 8.78831 24.9869 9.24419C24.9819 9.70007 24.8117 10.1386 24.5079 10.4786C24.3462 10.6432 24.1511 10.7712 23.9357 10.854C23.7203 10.9368 23.4897 10.9723 23.2593 10.9583ZM21.7249 22.8478V12.3006C21.7249 12.1635 21.7795 12.1089 21.9031 12.1089H24.615C24.7387 12.1089 24.7933 12.1774 24.7933 12.3006V22.8478C24.7933 22.9982 24.7387 23.0668 24.615 23.0668H21.9304C21.7934 23.0668 21.7249 22.9849 21.7249 22.8478Z" fill="#A75A50"/>
</svg>
