<svg width="360" height="32" viewBox="0 0 360 32" fill="none" xmlns="http://www.w3.org/2000/svg">
<path d="M20.5 4.85114C20.5 4.85114 6.6659 4.84619 6.55399 4.84619C4.90682 4.84619 3.51457 5.23162 2.29144 6.00249C1.06879 6.77359 0.5 7.87195 0.5 9.29769V27.1532L20.5 27.1539V4.85114ZM17.9566 14.2455H12.7543V9.2978C12.7543 8.61632 12.5187 7.79477 12.2161 7.334H17.9566V14.2455ZM3.15896 9.91949C3.15896 8.80892 3.38462 8.0338 4.08347 7.59422C4.78254 7.15499 5.56948 6.93509 6.56786 6.93509C7.01723 6.93509 7.40185 6.97656 7.78497 7.0595C8.16751 7.14244 8.53029 7.28746 8.90474 7.49469C9.27954 7.70227 9.61399 8.01306 9.83884 8.42718C10.0632 8.84187 10.211 9.33927 10.211 9.91938V14.6943C10.211 15.2748 10.0555 15.7678 9.83087 16.1739C9.60624 16.5804 9.28555 16.8869 8.91121 17.0941C8.53688 17.3017 8.14289 17.4509 7.75237 17.5419C7.36104 17.6331 6.94381 17.6785 6.51145 17.6785C5.89572 17.6785 5.33561 17.6041 4.83619 17.4548C4.33723 17.3056 4.01399 16.9947 3.62312 16.5222C3.23249 16.0497 3.15908 15.4403 3.15908 14.6944L3.15896 9.91949ZM3.15896 19.0369C4.08381 19.5235 5.28567 19.7676 6.59434 19.7676C8.2415 19.7676 9.63688 19.3443 10.868 18.5733C11.7303 18.0335 12.245 17.2405 12.5035 16.4342H17.9566V24.9163L3.15896 24.9193V19.0369Z" fill="#A75A50"/>
<path d="M44.244 25.264C43.028 25.264 41.892 25.04 40.836 24.592C39.796 24.144 38.876 23.528 38.076 22.744C37.292 21.944 36.676 21.024 36.228 19.984C35.78 18.928 35.556 17.8 35.556 16.6C35.556 15.4 35.772 14.28 36.204 13.24C36.652 12.184 37.268 11.264 38.052 10.48C38.852 9.68 39.772 9.056 40.812 8.608C41.868 8.16 43.004 7.936 44.22 7.936C45.516 7.936 46.74 8.176 47.892 8.656C49.044 9.136 50.028 9.816 50.844 10.696L49.596 11.968C48.956 11.232 48.156 10.664 47.196 10.264C46.252 9.848 45.26 9.64 44.22 9.64C43.26 9.64 42.364 9.816 41.532 10.168C40.716 10.52 39.996 11.016 39.372 11.656C38.764 12.28 38.284 13.016 37.932 13.864C37.596 14.696 37.428 15.608 37.428 16.6C37.428 17.576 37.596 18.488 37.932 19.336C38.284 20.184 38.764 20.928 39.372 21.568C39.996 22.192 40.716 22.68 41.532 23.032C42.364 23.384 43.26 23.56 44.22 23.56C45.356 23.56 46.38 23.312 47.292 22.816C48.22 22.32 48.964 21.64 49.524 20.776C50.1 19.912 50.436 18.936 50.532 17.848H44.508V16.216H52.404V16.96C52.404 18.128 52.196 19.216 51.78 20.224C51.364 21.232 50.788 22.112 50.052 22.864C49.316 23.616 48.452 24.208 47.46 24.64C46.468 25.056 45.396 25.264 44.244 25.264ZM58.5878 25V18.16L51.9158 8.2H54.0758L59.5718 16.528L65.0438 8.2H67.1318L60.4358 18.232V25H58.5878ZM69.0199 25V8.2H81.0439V9.832H70.8679V15.712H77.5159V17.32H70.8679V23.368H81.1399V25H69.0199ZM90.6028 25.264C89.3868 25.264 88.2508 25.048 87.1948 24.616C86.1548 24.168 85.2348 23.552 84.4348 22.768C83.6508 21.968 83.0348 21.048 82.5868 20.008C82.1548 18.952 81.9388 17.816 81.9388 16.6C81.9388 15.384 82.1548 14.256 82.5868 13.216C83.0348 12.16 83.6508 11.24 84.4348 10.456C85.2348 9.656 86.1548 9.04 87.1948 8.608C88.2508 8.16 89.3868 7.936 90.6028 7.936C91.8028 7.936 92.9228 8.16 93.9628 8.608C95.0188 9.04 95.9388 9.656 96.7228 10.456C97.5228 11.24 98.1388 12.16 98.5708 13.216C99.0188 14.256 99.2428 15.384 99.2428 16.6C99.2428 17.816 99.0188 18.952 98.5708 20.008C98.1388 21.048 97.5228 21.968 96.7228 22.768C95.9388 23.552 95.0188 24.168 93.9628 24.616C92.9228 25.048 91.8028 25.264 90.6028 25.264ZM90.6028 23.56C91.5628 23.56 92.4508 23.384 93.2668 23.032C94.0828 22.68 94.7948 22.192 95.4028 21.568C96.0268 20.928 96.5068 20.184 96.8428 19.336C97.1948 18.488 97.3708 17.576 97.3708 16.6C97.3708 15.608 97.1948 14.696 96.8428 13.864C96.5068 13.016 96.0268 12.28 95.4028 11.656C94.7948 11.016 94.0828 10.52 93.2668 10.168C92.4508 9.816 91.5628 9.64 90.6028 9.64C89.6428 9.64 88.7468 9.816 87.9148 10.168C87.0988 10.52 86.3788 11.016 85.7548 11.656C85.1468 12.28 84.6668 13.016 84.3148 13.864C83.9788 14.696 83.8108 15.6 83.8108 16.576C83.8108 17.568 83.9788 18.488 84.3148 19.336C84.6668 20.184 85.1468 20.928 85.7548 21.568C86.3788 22.192 87.0988 22.68 87.9148 23.032C88.7468 23.384 89.6428 23.56 90.6028 23.56ZM102.137 25V8.2H103.985L114.089 21.832V8.2H115.841V25H114.209L103.889 11.008V25H102.137ZM127.424 25.264C126.208 25.264 125.072 25.04 124.016 24.592C122.976 24.144 122.056 23.528 121.256 22.744C120.472 21.944 119.856 21.024 119.408 19.984C118.96 18.928 118.736 17.8 118.736 16.6C118.736 15.4 118.952 14.28 119.384 13.24C119.832 12.184 120.448 11.264 121.232 10.48C122.032 9.68 122.952 9.056 123.992 8.608C125.048 8.16 126.184 7.936 127.4 7.936C128.696 7.936 129.92 8.176 131.072 8.656C132.224 9.136 133.208 9.816 134.024 10.696L132.776 11.968C132.136 11.232 131.336 10.664 130.376 10.264C129.432 9.848 128.44 9.64 127.4 9.64C126.44 9.64 125.544 9.816 124.712 10.168C123.896 10.52 123.176 11.016 122.552 11.656C121.944 12.28 121.464 13.016 121.112 13.864C120.776 14.696 120.608 15.608 120.608 16.6C120.608 17.576 120.776 18.488 121.112 19.336C121.464 20.184 121.944 20.928 122.552 21.568C123.176 22.192 123.896 22.68 124.712 23.032C125.544 23.384 126.44 23.56 127.4 23.56C128.536 23.56 129.56 23.312 130.472 22.816C131.4 22.32 132.144 21.64 132.704 20.776C133.28 19.912 133.616 18.936 133.712 17.848H127.688V16.216H135.584V16.96C135.584 18.128 135.376 19.216 134.96 20.224C134.544 21.232 133.968 22.112 133.232 22.864C132.496 23.616 131.632 24.208 130.64 24.64C129.648 25.056 128.576 25.264 127.424 25.264ZM141.767 25V18.16L135.095 8.2H137.255L142.751 16.528L148.223 8.2H150.311L143.615 18.232V25H141.767ZM152.2 25V8.2H164.224V9.832H154.048V15.712H160.696V17.32H154.048V23.368H164.32V25H152.2ZM173.783 25.264C172.567 25.264 171.431 25.048 170.375 24.616C169.335 24.168 168.415 23.552 167.615 22.768C166.831 21.968 166.215 21.048 165.767 20.008C165.335 18.952 165.119 17.816 165.119 16.6C165.119 15.384 165.335 14.256 165.767 13.216C166.215 12.16 166.831 11.24 167.615 10.456C168.415 9.656 169.335 9.04 170.375 8.608C171.431 8.16 172.567 7.936 173.783 7.936C174.983 7.936 176.103 8.16 177.143 8.608C178.199 9.04 179.119 9.656 179.903 10.456C180.703 11.24 181.319 12.16 181.751 13.216C182.199 14.256 182.423 15.384 182.423 16.6C182.423 17.816 182.199 18.952 181.751 20.008C181.319 21.048 180.703 21.968 179.903 22.768C179.119 23.552 178.199 24.168 177.143 24.616C176.103 25.048 174.983 25.264 173.783 25.264ZM173.783 23.56C174.743 23.56 175.631 23.384 176.447 23.032C177.263 22.68 177.975 22.192 178.583 21.568C179.207 20.928 179.687 20.184 180.023 19.336C180.375 18.488 180.551 17.576 180.551 16.6C180.551 15.608 180.375 14.696 180.023 13.864C179.687 13.016 179.207 12.28 178.583 11.656C177.975 11.016 177.263 10.52 176.447 10.168C175.631 9.816 174.743 9.64 173.783 9.64C172.823 9.64 171.927 9.816 171.095 10.168C170.279 10.52 169.559 11.016 168.935 11.656C168.327 12.28 167.847 13.016 167.495 13.864C167.159 14.696 166.991 15.6 166.991 16.576C166.991 17.568 167.159 18.488 167.495 19.336C167.847 20.184 168.327 20.928 168.935 21.568C169.559 22.192 170.279 22.68 171.095 23.032C171.927 23.384 172.823 23.56 173.783 23.56ZM185.317 25V8.2H187.165L197.269 21.832V8.2H199.021V25H197.389L187.069 11.008V25H185.317ZM202.371 12.808L203.763 7.744H205.683L203.763 12.808H202.371ZM211.25 25.24C210.258 25.24 209.322 25.08 208.442 24.76C207.578 24.424 206.826 23.96 206.186 23.368L207.266 22.216C207.826 22.728 208.442 23.128 209.114 23.416C209.786 23.688 210.474 23.824 211.178 23.824C212.138 23.824 212.922 23.624 213.53 23.224C214.138 22.824 214.442 22.304 214.442 21.664C214.442 21.136 214.258 20.728 213.89 20.44C213.538 20.136 212.978 19.928 212.21 19.816L210.122 19.528C208.922 19.352 208.026 18.992 207.434 18.448C206.858 17.904 206.57 17.168 206.57 16.24C206.57 15.568 206.762 14.968 207.146 14.44C207.53 13.912 208.058 13.496 208.73 13.192C209.418 12.888 210.202 12.736 211.082 12.736C211.962 12.736 212.786 12.864 213.554 13.12C214.322 13.376 215.074 13.776 215.81 14.32L214.874 15.52C214.202 15.056 213.546 14.72 212.906 14.512C212.282 14.288 211.642 14.176 210.986 14.176C210.154 14.176 209.482 14.36 208.97 14.728C208.458 15.096 208.202 15.576 208.202 16.168C208.202 16.712 208.378 17.128 208.73 17.416C209.082 17.688 209.65 17.88 210.434 17.992L212.522 18.28C213.722 18.44 214.618 18.792 215.21 19.336C215.818 19.88 216.122 20.624 216.122 21.568C216.122 22.256 215.906 22.88 215.474 23.44C215.042 24 214.458 24.44 213.722 24.76C213.002 25.08 212.178 25.24 211.25 25.24ZM223.614 25V8.2H230.91C232.014 8.2 232.966 8.4 233.766 8.8C234.582 9.2 235.214 9.768 235.662 10.504C236.11 11.224 236.334 12.072 236.334 13.048C236.334 14.024 236.11 14.88 235.662 15.616C235.214 16.336 234.582 16.904 233.766 17.32C232.95 17.72 231.998 17.92 230.91 17.92H225.462V25H223.614ZM225.462 16.312H230.766C231.902 16.312 232.806 16.024 233.478 15.448C234.15 14.856 234.486 14.064 234.486 13.072C234.486 12.08 234.15 11.296 233.478 10.72C232.806 10.144 231.902 9.856 230.766 9.856H225.462V16.312ZM247.025 25.264C245.809 25.264 244.673 25.048 243.617 24.616C242.577 24.168 241.657 23.552 240.857 22.768C240.073 21.968 239.457 21.048 239.009 20.008C238.577 18.952 238.361 17.816 238.361 16.6C238.361 15.384 238.577 14.256 239.009 13.216C239.457 12.16 240.073 11.24 240.857 10.456C241.657 9.656 242.577 9.04 243.617 8.608C244.673 8.16 245.809 7.936 247.025 7.936C248.225 7.936 249.345 8.16 250.385 8.608C251.441 9.04 252.361 9.656 253.145 10.456C253.945 11.24 254.561 12.16 254.993 13.216C255.441 14.256 255.665 15.384 255.665 16.6C255.665 17.816 255.441 18.952 254.993 20.008C254.561 21.048 253.945 21.968 253.145 22.768C252.361 23.552 251.441 24.168 250.385 24.616C249.345 25.048 248.225 25.264 247.025 25.264ZM247.025 23.56C247.985 23.56 248.873 23.384 249.689 23.032C250.505 22.68 251.217 22.192 251.825 21.568C252.449 20.928 252.929 20.184 253.265 19.336C253.617 18.488 253.793 17.576 253.793 16.6C253.793 15.608 253.617 14.696 253.265 13.864C252.929 13.016 252.449 12.28 251.825 11.656C251.217 11.016 250.505 10.52 249.689 10.168C248.873 9.816 247.985 9.64 247.025 9.64C246.065 9.64 245.169 9.816 244.337 10.168C243.521 10.52 242.801 11.016 242.177 11.656C241.569 12.28 241.089 13.016 240.737 13.864C240.401 14.696 240.233 15.6 240.233 16.576C240.233 17.568 240.401 18.488 240.737 19.336C241.089 20.184 241.569 20.928 242.177 21.568C242.801 22.192 243.521 22.68 244.337 23.032C245.169 23.384 246.065 23.56 247.025 23.56ZM258.559 25V8.2H265.759C266.863 8.2 267.823 8.4 268.639 8.8C269.455 9.2 270.087 9.76 270.535 10.48C270.999 11.2 271.231 12.048 271.231 13.024C271.231 14.128 270.903 15.08 270.247 15.88C269.607 16.664 268.743 17.216 267.655 17.536L271.423 25H269.383L265.783 17.776H260.407V25H258.559ZM260.407 16.216H265.639C266.775 16.216 267.679 15.928 268.351 15.352C269.039 14.776 269.383 14 269.383 13.024C269.383 12.064 269.039 11.296 268.351 10.72C267.679 10.144 266.775 9.856 265.639 9.856H260.407V16.216ZM278.05 25V9.856H271.978V8.2H285.97V9.856H279.898V25H278.05ZM288.231 25V8.2H300.255V9.832H290.079V15.832H296.751V17.44H290.079V25H288.231ZM309.603 25.264C308.387 25.264 307.251 25.048 306.195 24.616C305.155 24.168 304.235 23.552 303.435 22.768C302.651 21.968 302.035 21.048 301.587 20.008C301.155 18.952 300.939 17.816 300.939 16.6C300.939 15.384 301.155 14.256 301.587 13.216C302.035 12.16 302.651 11.24 303.435 10.456C304.235 9.656 305.155 9.04 306.195 8.608C307.251 8.16 308.387 7.936 309.603 7.936C310.803 7.936 311.923 8.16 312.963 8.608C314.019 9.04 314.939 9.656 315.723 10.456C316.523 11.24 317.139 12.16 317.571 13.216C318.019 14.256 318.243 15.384 318.243 16.6C318.243 17.816 318.019 18.952 317.571 20.008C317.139 21.048 316.523 21.968 315.723 22.768C314.939 23.552 314.019 24.168 312.963 24.616C311.923 25.048 310.803 25.264 309.603 25.264ZM309.603 23.56C310.563 23.56 311.451 23.384 312.267 23.032C313.083 22.68 313.795 22.192 314.403 21.568C315.027 20.928 315.507 20.184 315.843 19.336C316.195 18.488 316.371 17.576 316.371 16.6C316.371 15.608 316.195 14.696 315.843 13.864C315.507 13.016 315.027 12.28 314.403 11.656C313.795 11.016 313.083 10.52 312.267 10.168C311.451 9.816 310.563 9.64 309.603 9.64C308.643 9.64 307.747 9.816 306.915 10.168C306.099 10.52 305.379 11.016 304.755 11.656C304.147 12.28 303.667 13.016 303.315 13.864C302.979 14.696 302.811 15.6 302.811 16.576C302.811 17.568 302.979 18.488 303.315 19.336C303.667 20.184 304.147 20.928 304.755 21.568C305.379 22.192 306.099 22.68 306.915 23.032C307.747 23.384 308.643 23.56 309.603 23.56ZM321.137 25V8.2H322.985V23.344H332.993V25H321.137ZM335.621 25V8.2H337.469V25H335.621ZM349.048 25.264C347.832 25.264 346.696 25.048 345.64 24.616C344.6 24.168 343.68 23.552 342.88 22.768C342.096 21.968 341.48 21.048 341.032 20.008C340.6 18.952 340.384 17.816 340.384 16.6C340.384 15.384 340.6 14.256 341.032 13.216C341.48 12.16 342.096 11.24 342.88 10.456C343.68 9.656 344.6 9.04 345.64 8.608C346.696 8.16 347.832 7.936 349.048 7.936C350.248 7.936 351.368 8.16 352.408 8.608C353.464 9.04 354.384 9.656 355.168 10.456C355.968 11.24 356.584 12.16 357.016 13.216C357.464 14.256 357.688 15.384 357.688 16.6C357.688 17.816 357.464 18.952 357.016 20.008C356.584 21.048 355.968 21.968 355.168 22.768C354.384 23.552 353.464 24.168 352.408 24.616C351.368 25.048 350.248 25.264 349.048 25.264ZM349.048 23.56C350.008 23.56 350.896 23.384 351.712 23.032C352.528 22.68 353.24 22.192 353.848 21.568C354.472 20.928 354.952 20.184 355.288 19.336C355.64 18.488 355.816 17.576 355.816 16.6C355.816 15.608 355.64 14.696 355.288 13.864C354.952 13.016 354.472 12.28 353.848 11.656C353.24 11.016 352.528 10.52 351.712 10.168C350.896 9.816 350.008 9.64 349.048 9.64C348.088 9.64 347.192 9.816 346.36 10.168C345.544 10.52 344.824 11.016 344.2 11.656C343.592 12.28 343.112 13.016 342.76 13.864C342.424 14.696 342.256 15.6 342.256 16.576C342.256 17.568 342.424 18.488 342.76 19.336C343.112 20.184 343.592 20.928 344.2 21.568C344.824 22.192 345.544 22.68 346.36 23.032C347.192 23.384 348.088 23.56 349.048 23.56Z" fill="#A75A50"/>
</svg>
